<svg width="17" height="16" viewBox="0 0 17 16" fill="none" xmlns="http://www.w3.org/2000/svg">
<g clip-path="url(#clip0_48_568)">
<path d="M9.4375 1C9.4375 0.446875 8.99063 0 8.4375 0C7.88438 0 7.4375 0.446875 7.4375 1V8.58438L5.14375 6.29063C4.75313 5.9 4.11875 5.9 3.72813 6.29063C3.3375 6.68125 3.3375 7.31563 3.72813 7.70625L7.72813 11.7063C8.11875 12.0969 8.75313 12.0969 9.14375 11.7063L13.1438 7.70625C13.5344 7.31563 13.5344 6.68125 13.1438 6.29063C12.7531 5.9 12.1187 5.9 11.7281 6.29063L9.4375 8.58438V1ZM2.4375 11C1.33438 11 0.4375 11.8969 0.4375 13V14C0.4375 15.1031 1.33438 16 2.4375 16H14.4375C15.5406 16 16.4375 15.1031 16.4375 14V13C16.4375 11.8969 15.5406 11 14.4375 11H11.2656L9.85 12.4156C9.06875 13.1969 7.80312 13.1969 7.02187 12.4156L5.60938 11H2.4375ZM13.9375 12.75C14.1364 12.75 14.3272 12.829 14.4678 12.9697C14.6085 13.1103 14.6875 13.3011 14.6875 13.5C14.6875 13.6989 14.6085 13.8897 14.4678 14.0303C14.3272 14.171 14.1364 14.25 13.9375 14.25C13.7386 14.25 13.5478 14.171 13.4072 14.0303C13.2665 13.8897 13.1875 13.6989 13.1875 13.5C13.1875 13.3011 13.2665 13.1103 13.4072 12.9697C13.5478 12.829 13.7386 12.75 13.9375 12.75Z" fill="white"/>
</g>
<defs>
<clipPath id="clip0_48_568">
<path d="M0.4375 0H16.4375V16H0.4375V0Z" fill="white"/>
</clipPath>
</defs>
</svg>
