<svg width="20" height="21" viewBox="0 0 20 21" fill="none" xmlns="http://www.w3.org/2000/svg">
<path d="M6.44141 1.46096C6.14062 0.734401 5.34766 0.347683 4.58984 0.554714L1.15234 1.49221C0.472656 1.67971 0 2.2969 0 3.00003C0 12.6641 7.83594 20.5 17.5 20.5C18.2031 20.5 18.8203 20.0274 19.0078 19.3477L19.9453 15.9102C20.1523 15.1524 19.7656 14.3594 19.0391 14.0586L15.2891 12.4961C14.6523 12.2305 13.9141 12.4141 13.4805 12.9492L11.9023 14.875C9.15234 13.5742 6.92578 11.3477 5.625 8.59768L7.55078 7.02346C8.08594 6.58596 8.26953 5.85159 8.00391 5.21487L6.44141 1.46487V1.46096Z" fill="#0057FF"/>
</svg>
