<svg width="40" height="48" viewBox="0 0 40 48" fill="none" xmlns="http://www.w3.org/2000/svg">
<path d="M20 0C31.0457 0 40 8.9543 40 20V28C40 39.0457 31.0457 48 20 48C8.95431 48 0 39.0457 0 28V20C0 8.95431 8.95431 0 20 0Z" fill="#0057FF"/>
<path d="M20 0C31.0457 0 40 8.9543 40 20V28C40 39.0457 31.0457 48 20 48C8.95431 48 0 39.0457 0 28V20C0 8.95431 8.95431 0 20 0Z" stroke="#E5E7EB"/>
<path d="M28 34H12V14H28V34Z" stroke="#E5E7EB"/>
<path d="M28 32H12V16H28V32Z" stroke="#E5E7EB"/>
<path d="M26.3553 20.7411C26.3655 20.8833 26.3655 21.0254 26.3655 21.1675C26.3655 25.5025 23.066 30.4975 17.0355 30.4975C15.1777 30.4975 13.4518 29.9594 12 29.0254C12.264 29.0558 12.5178 29.066 12.7919 29.066C14.3248 29.066 15.736 28.5483 16.8629 27.665C15.4213 27.6345 14.2132 26.6904 13.7969 25.3909C14 25.4213 14.203 25.4416 14.4162 25.4416C14.7107 25.4416 15.0051 25.401 15.2792 25.33C13.7767 25.0254 12.6497 23.7056 12.6497 22.1117V22.0711C13.0863 22.3148 13.5939 22.467 14.1319 22.4873C13.2487 21.8985 12.67 20.8934 12.67 19.7563C12.67 19.1472 12.8324 18.5888 13.1167 18.1015C14.7309 20.0914 17.1573 21.3908 19.8781 21.533C19.8274 21.2893 19.7969 21.0356 19.7969 20.7818C19.7969 18.9746 21.2588 17.5026 23.0761 17.5026C24.0203 17.5026 24.873 17.8985 25.472 18.5381C26.2131 18.396 26.9238 18.1218 27.5533 17.7462C27.3096 18.5077 26.7918 19.1473 26.1116 19.5533C26.7715 19.4823 27.4111 19.2995 27.9999 19.0457C27.5533 19.6954 26.9949 20.2741 26.3553 20.7411Z" fill="white"/>
</svg>
