<svg width="15" height="16" viewBox="0 0 15 16" fill="none" xmlns="http://www.w3.org/2000/svg">
<g clip-path="url(#clip0_48_431)">
<path d="M13.8938 8.70615C14.2844 8.31553 14.2844 7.68115 13.8938 7.29053L8.89375 2.29053C8.50313 1.8999 7.86875 1.8999 7.47813 2.29053C7.0875 2.68115 7.0875 3.31553 7.47813 3.70615L10.775 6.9999H1.1875C0.634375 6.9999 0.1875 7.44678 0.1875 7.9999C0.1875 8.55303 0.634375 8.9999 1.1875 8.9999H10.7719L7.48125 12.2937C7.09062 12.6843 7.09062 13.3187 7.48125 13.7093C7.87187 14.0999 8.50625 14.0999 8.89688 13.7093L13.8969 8.70928L13.8938 8.70615Z" fill="#333333"/>
</g>
<defs>
<clipPath id="clip0_48_431">
<path d="M0.1875 0H14.1875V16H0.1875V0Z" fill="white"/>
</clipPath>
</defs>
</svg>
