<svg width="21" height="16" viewBox="0 0 21 16" fill="none" xmlns="http://www.w3.org/2000/svg">
<g clip-path="url(#clip0_48_437)">
<path d="M10.2625 2.6625L7.2375 5.1125C6.73438 5.51875 6.6375 6.25 7.01875 6.77187C7.42188 7.32812 8.20625 7.4375 8.74687 7.01562L11.85 4.60313C12.0688 4.43438 12.3813 4.47188 12.5531 4.69063C12.725 4.90938 12.6844 5.22188 12.4656 5.39375L11.8125 5.9L16.1562 9.9V4H16.1344L16.0125 3.92188L13.7437 2.46875C13.2656 2.1625 12.7063 2 12.1375 2C11.4563 2 10.7937 2.23437 10.2625 2.6625ZM10.975 6.55L9.35938 7.80625C8.375 8.575 6.94688 8.375 6.20937 7.3625C5.51562 6.40938 5.69062 5.07812 6.60625 4.3375L9.20625 2.23438C8.84375 2.08125 8.45312 2.00312 8.05625 2.00312C7.46875 2 6.89687 2.175 6.40625 2.5L4.15625 4V11H5.0375L7.89375 13.6062C8.50625 14.1656 9.45312 14.1219 10.0125 13.5094C10.1844 13.3187 10.3 13.0969 10.3594 12.8656L10.8906 13.3531C11.5 13.9125 12.45 13.8719 13.0094 13.2625C13.15 13.1094 13.2531 12.9312 13.3188 12.7469C13.925 13.1531 14.75 13.0687 15.2594 12.5125C15.8187 11.9031 15.7781 10.9531 15.1687 10.3938L10.975 6.55ZM0.65625 4C0.38125 4 0.15625 4.225 0.15625 4.5V11C0.15625 11.5531 0.603125 12 1.15625 12H2.15625C2.70937 12 3.15625 11.5531 3.15625 11V4H0.65625ZM1.65625 10C1.78886 10 1.91604 10.0527 2.0098 10.1464C2.10357 10.2402 2.15625 10.3674 2.15625 10.5C2.15625 10.6326 2.10357 10.7598 2.0098 10.8536C1.91604 10.9473 1.78886 11 1.65625 11C1.52364 11 1.39646 10.9473 1.3027 10.8536C1.20893 10.7598 1.15625 10.6326 1.15625 10.5C1.15625 10.3674 1.20893 10.2402 1.3027 10.1464C1.39646 10.0527 1.52364 10 1.65625 10ZM17.1562 4V11C17.1562 11.5531 17.6031 12 18.1562 12H19.1562C19.7094 12 20.1562 11.5531 20.1562 11V4.5C20.1562 4.225 19.9312 4 19.6562 4H17.1562ZM18.1562 10.5C18.1562 10.3674 18.2089 10.2402 18.3027 10.1464C18.3965 10.0527 18.5236 10 18.6562 10C18.7889 10 18.916 10.0527 19.0098 10.1464C19.1036 10.2402 19.1562 10.3674 19.1562 10.5C19.1562 10.6326 19.1036 10.7598 19.0098 10.8536C18.916 10.9473 18.7889 11 18.6562 11C18.5236 11 18.3965 10.9473 18.3027 10.8536C18.2089 10.7598 18.1562 10.6326 18.1562 10.5Z" fill="#0057FF"/>
</g>
<defs>
<clipPath id="clip0_48_437">
<path d="M0.15625 0H20.1562V16H0.15625V0Z" fill="white"/>
</clipPath>
</defs>
</svg>
