<svg width="17" height="16" viewBox="0 0 17 16" fill="none" xmlns="http://www.w3.org/2000/svg">
<g clip-path="url(#clip0_48_898)">
<path d="M1.875 2C1.04688 2 0.375 2.67188 0.375 3.5C0.375 3.97187 0.596875 4.41562 0.975 4.7L7.775 9.8C8.13125 10.0656 8.61875 10.0656 8.975 9.8L15.775 4.7C16.1531 4.41562 16.375 3.97187 16.375 3.5C16.375 2.67188 15.7031 2 14.875 2H1.875ZM0.375 5.5V12C0.375 13.1031 1.27188 14 2.375 14H14.375C15.4781 14 16.375 13.1031 16.375 12V5.5L9.575 10.6C8.8625 11.1344 7.8875 11.1344 7.175 10.6L0.375 5.5Z" fill="white"/>
</g>
<defs>
<clipPath id="clip0_48_898">
<path d="M0.375 0H16.375V16H0.375V0Z" fill="white"/>
</clipPath>
</defs>
</svg>
