<svg width="15" height="16" viewBox="0 0 15 16" fill="none" xmlns="http://www.w3.org/2000/svg">
<g clip-path="url(#clip0_48_892)">
<path d="M14.5031 8.70627C14.8938 8.31565 14.8938 7.68127 14.5031 7.29065L9.50313 2.29065C9.1125 1.90002 8.47813 1.90002 8.0875 2.29065C7.69688 2.68127 7.69688 3.31565 8.0875 3.70627L11.3844 7.00002H1.79688C1.24375 7.00002 0.796875 7.4469 0.796875 8.00002C0.796875 8.55315 1.24375 9.00002 1.79688 9.00002H11.3813L8.09062 12.2938C7.7 12.6844 7.7 13.3188 8.09062 13.7094C8.48125 14.1 9.11563 14.1 9.50625 13.7094L14.5063 8.7094L14.5031 8.70627Z" fill="#333333"/>
</g>
<defs>
<clipPath id="clip0_48_892">
<path d="M0.796875 0H14.7969V16H0.796875V0Z" fill="white"/>
</clipPath>
</defs>
</svg>
