<svg width="18" height="21" viewBox="0 0 18 21" fill="none" xmlns="http://www.w3.org/2000/svg">
<g clip-path="url(#clip0_48_588)">
<path d="M16.25 1.75H1.24609C0.558594 1.75 0 2.31641 0 3.01172V17.9883C0 18.6836 0.558594 19.25 1.24609 19.25H16.25C16.9375 19.25 17.5 18.6836 17.5 17.9883V3.01172C17.5 2.31641 16.9375 1.75 16.25 1.75ZM5.28906 16.75H2.69531V8.39844H5.29297V16.75H5.28906ZM3.99219 7.25781C3.16016 7.25781 2.48828 6.58203 2.48828 5.75391C2.48828 4.92578 3.16016 4.25 3.99219 4.25C4.82031 4.25 5.49609 4.92578 5.49609 5.75391C5.49609 6.58594 4.82422 7.25781 3.99219 7.25781ZM15.0117 16.75H12.418V12.6875C12.418 11.7188 12.3984 10.4727 11.0703 10.4727C9.71875 10.4727 9.51172 11.5273 9.51172 12.6172V16.75H6.91797V8.39844H9.40625V9.53906H9.44141C9.78906 8.88281 10.6367 8.19141 11.8984 8.19141C14.5234 8.19141 15.0117 9.92188 15.0117 12.1719V16.75Z" fill="#0057FF"/>
</g>
<defs>
<clipPath id="clip0_48_588">
<path d="M0 0.5H17.5V20.5H0V0.5Z" fill="white"/>
</clipPath>
</defs>
</svg>
