<svg width="15" height="16" viewBox="0 0 15 16" fill="none" xmlns="http://www.w3.org/2000/svg">
<g clip-path="url(#clip0_48_665)">
<g clip-path="url(#clip1_48_665)">
<path d="M14.1438 8.70627C14.5344 8.31565 14.5344 7.68127 14.1438 7.29065L9.14375 2.29065C8.75313 1.90002 8.11875 1.90002 7.72813 2.29065C7.3375 2.68127 7.3375 3.31565 7.72813 3.70627L11.025 7.00002H1.4375C0.884375 7.00002 0.4375 7.4469 0.4375 8.00002C0.4375 8.55315 0.884375 9.00002 1.4375 9.00002H11.0219L7.73125 12.2938C7.34062 12.6844 7.34062 13.3188 7.73125 13.7094C8.12187 14.1 8.75625 14.1 9.14688 13.7094L14.1469 8.7094L14.1438 8.70627Z" fill="#0057FF"/>
</g>
</g>
<defs>
<clipPath id="clip0_48_665">
<rect width="14" height="16" fill="white" transform="translate(0.4375)"/>
</clipPath>
<clipPath id="clip1_48_665">
<path d="M0.4375 0H14.4375V16H0.4375V0Z" fill="white"/>
</clipPath>
</defs>
</svg>
